{"title":"Lust Unleashed 5 [**NEW**] 30 August 2014","uid":10924207,"size":1320009282,"categoryP":"porn","categoryS":"movies","magnet":"?xt=urn:btih:02b30a3920f477dd963e0d012bc5956e5247deff&amp;dn=Lust+Unleashed+5+%5B%2A%2ANEW%2A%2A%5D+30+August+2014&amp;tr=udp%3A%2F%2Ftracker.openbittorrent.com%3A80&amp;tr=udp%3A%2F%2Fopen.demonii.com%3A1337&amp;tr=udp%3A%2F%2Ftracker.coppersurfer.tk%3A6969&amp;tr=udp%3A%2F%2Fexodus.desync.com%3A6969","seeders":0,"leechers":0,"uploader":"iH2OSO4","files":-1,"time":1409354926,"description":"Lust Unleashed 5 [NEW] 30 August 2014\n\nPassion shows no restraint in 5 heated sexual encounters that are captured in high definition! Alexa Grace, Alexis Adams, Sabrina Banks, Sierra Nevadah, and Whitney Westgate are ready to lose themselves in an orgasmic frenzy for your viewing pleasure. Prepare yourself as lust and desire are unleashed to create pure sexual passion!\n\nSOURCE:   &lt;a href=&quot; http://nuscotower.com/i/fgbdz_65fdb.html&quot; rel=&quot;nofollow&quot; target=&quot;_NEW&quot;&gt; http://nuscotower.com/i/fgbdz_65fdb.html&lt;/a&gt;\n\nGeneral\nLust Unleashed 5 [NEW] 30 August 2014.mp4\nFormat                           : MPEG-4\nFormat profile                   : Base Media\nCodec ID                         : isom\nFile size                        : 1.23 GiB\nDuration                         : 1h 53mn\nOverall bit rate                 : 1 547 Kbps\nEncoded date                     : UTC 2014-08-30 01:11:33\nTagged date                      : UTC 2014-08-30 01:11:33\n\nVideo\nID                               : 1\nFormat                           : MPEG-4 Visual\nFormat profile                   : Simple@L1\nFormat settings, BVOP            : No\nFormat settings, QPel            : No\nFormat settings, GMC             : No warppoints\nFormat settings, Matrix          : Default (H.263)\nCodec ID                         : 20\nDuration                         : 1h 53mn\nBit rate mode                    : Variable\nBit rate                         : 1 419 Kbps\nMaximum bit rate                 : 3 679 Kbps\nWidth                            : 688 pixels\nHeight                           : 384 pixels\nDisplay aspect ratio             : 16:9\nOriginal display aspect ratio    : 16:9\nFrame rate mode                  : Constant\nFrame rate                       : 23.976 fps\nColor space                      : YUV\nChroma subsampling               : 4:2:0\nBit depth                        : 8 bits\nScan type                        : Progressive\nCompression mode                 : Lossy\nBits/(Pixel*Frame)               : 0.224\nStream size                      : 1.13 GiB (92%)\nWriting library                  : Lavc53.8.0\nEncoded date                     : UTC 2014-08-30 01:11:33\nTagged date                      : UTC 2014-08-30 01:12:22\n\nAudio\nID                               : 2\nFormat                           : AAC\nFormat/Info                      : Advanced Audio Codec\nFormat profile                   : LC\nCodec ID                         : 40\nDuration                         : 1h 53mn\nBit rate mode                    : Variable\nBit rate                         : 126 Kbps\nMaximum bit rate                 : 259 Kbps\nChannel(s)                       : 2 channels\nChannel positions                : Front: L R\nSampling rate                    : 44.1 KHz\nCompression mode                 : Lossy\nStream size                      : 102 MiB (8%)\nEncoded date                     : UTC 2014-08-30 01:12:07\nTagged date                      : UTC 2014-08-30 01:12:22\n","torrent":{"xt":"urn:btih:02b30a3920f477dd963e0d012bc5956e5247deff","amp;dn":"Lust+Unleashed+5+%5B%2A%2ANEW%2A%2A%5D+30+August+2014","amp;tr":["udp%3A%2F%2Ftracker.openbittorrent.com%3A80","udp%3A%2F%2Fopen.demonii.com%3A1337","udp%3A%2F%2Ftracker.coppersurfer.tk%3A6969","udp%3A%2F%2Fexodus.desync.com%3A6969"],"infoHash":"02b30a3920f477dd963e0d012bc5956e5247deff","infoHashBuffer":{"type":"Buffer","data":[2,179,10,57,32,244,119,221,150,62,13,1,43,197,149,110,82,71,222,255]},"announce":[],"urlList":[]}}